<svg width="512" height="456" viewBox="0 0 512 456" fill="none" xmlns="http://www.w3.org/2000/svg">
<path fill-rule="evenodd" clip-rule="evenodd" d="M344.948 1.73873C331.342 4.64873 316.881 10.8227 301.979 20.0847C292.973 25.6817 274.778 39.3537 266.936 46.4157C254.73 57.4077 257.048 57.0037 248.716 49.5927C219.129 23.2757 188.848 6.11973 164.301 1.76473C154.644 0.0507293 140.059 0.926729 132.948 3.64673C102.044 15.4697 91.1208 65.3527 105.11 130.78C106.227 136.005 107.21 140.638 107.294 141.074C107.379 141.511 100.923 144.04 92.9478 146.694C59.1418 157.943 33.9958 172.369 17.3488 190.066C-4.83815 213.651 -5.73115 236.925 14.5938 261.918C24.3378 273.901 39.9978 285.568 59.9478 295.71C72.5938 302.138 91.1708 309.721 100.896 312.425C108.068 314.419 107.698 312.263 103.956 330.28C95.9088 369.02 97.6628 405.387 108.651 427.626C121.314 453.252 145.636 460.976 179.448 450.107C200.09 443.472 228.611 425.678 249.72 406.266L256.991 399.579L263.74 405.929C299.393 439.48 340.738 458.952 367.513 454.803C391.742 451.048 407.109 430.719 412.03 395.91C414 381.971 412.686 350.292 409.411 332.78C407.919 324.805 406.483 317.072 406.219 315.596C405.782 313.147 406.12 312.812 410.094 311.752C418.519 309.505 438.577 301.488 450.373 295.652C477.233 282.365 497.81 264.945 505.857 248.683C511.084 238.121 512.749 229.205 511.13 220.448C509.657 212.485 504.355 201.885 497.974 194.152C482.326 175.187 448.567 155.753 412.198 144.774C407.904 143.477 404.948 142.04 404.948 141.248C404.948 140.513 405.64 136.622 406.485 132.602C414.811 93.0247 414.152 54.7057 404.765 32.4827C393.47 5.74273 373.71 -4.41327 344.948 1.73873ZM169.448 25.5317C188.811 31.5527 212.545 46.5047 235.448 67.1107C239.295 70.5717 240.217 71.9437 239.448 73.0627C238.898 73.8617 234.011 79.6377 228.587 85.8977C223.164 92.1577 213.939 103.67 208.087 111.479C199.281 123.232 196.931 125.763 194.448 126.171C192.798 126.442 183.783 127.604 174.414 128.753C165.046 129.902 151.096 132.116 143.414 133.674C135.733 135.231 129.284 136.365 129.083 136.194C128.4 135.612 125.124 120.32 123.318 109.28C120.862 94.2707 120.803 62.5197 123.211 51.7797C125.599 41.1297 131.418 30.0697 136.508 26.5087C143.782 21.4197 155.14 21.0817 169.448 25.5317ZM368.329 22.8687C374.076 24.4647 380.975 31.8737 384.186 39.8977C390.709 56.2007 392.196 83.7017 388.045 111.28C386.195 123.576 383.705 135.356 382.757 136.304C382.582 136.479 378.166 135.742 372.944 134.666C359.629 131.922 341.622 129.071 326.961 127.386C315.866 126.11 314.304 125.693 312.961 123.648C308.88 117.435 294.639 99.0587 286.061 88.9357C280.774 82.6967 275.334 76.2277 273.972 74.5597L271.496 71.5267L276.472 67.1257C295.912 49.9337 311.109 39.2247 327.448 31.2017C344.365 22.8957 358.24 20.0667 368.329 22.8687ZM268.018 101.396C272.182 106.282 277.96 113.317 280.859 117.03L286.131 123.78H255.955H225.78L229.114 119.53C235.75 111.07 248.292 96.1847 252.324 91.9817L256.448 87.6837L258.448 90.0977C259.548 91.4257 263.855 96.5097 268.018 101.396ZM296.147 146.623L302.845 147.28L311.404 160.528C320.939 175.287 336.342 202.004 344.14 217.308L349.25 227.337L343.488 238.788C335.107 255.447 325.144 272.985 313.337 291.865L302.949 308.476L292.293 309.128C278.634 309.964 229.982 309.974 218.28 309.143L209.305 308.506L200.716 295.325C190.173 279.146 178.976 259.753 169.589 241.418L162.493 227.555L168.72 215.418C176.812 199.645 187 181.796 197.574 164.864C210.182 144.675 206.841 146.953 225.448 145.864C241.423 144.929 283.473 145.381 296.147 146.623ZM179.712 152.03C175.052 159.184 162.416 180.799 157.498 190.03C154.348 195.942 151.469 200.78 151.1 200.78C150.34 200.78 142.483 180.794 137.955 167.34C135.957 161.401 135.304 158.178 136.011 157.741C137.774 156.651 172.88 150.29 179.313 149.895C181.017 149.79 181.052 149.974 179.712 152.03ZM347.874 152.3C366.986 155.437 376.948 157.674 376.948 158.829C376.948 159.903 367.128 186.964 363.812 195.029C362.512 198.19 361.149 200.778 360.784 200.779C360.419 200.779 357.766 196.393 354.889 191.03C352.011 185.667 345.617 174.53 340.68 166.28C335.743 158.03 331.507 150.942 331.267 150.53C330.655 149.48 330.756 149.491 347.874 152.3ZM118.876 178.857C121.729 187.15 126.772 200.312 130.082 208.107C139.255 229.709 139.041 226.195 132.164 242.294C125.751 257.307 115.615 284.465 114.456 289.742C113.786 292.792 113.563 292.93 110.288 292.316C100.645 290.507 68.0799 276.37 56.5569 268.991C47.5469 263.22 35.7638 253.419 31.4068 248.07C24.1438 239.155 22.5108 235.349 22.4838 227.28C22.4538 218.031 25.5868 212.322 36.3798 201.96C45.9288 192.793 58.9578 184.443 75.2698 177.037C86.9548 171.731 108.93 163.823 112.068 163.795C113.265 163.784 115.046 167.725 118.876 178.857ZM409.686 166.903C430.917 173.696 453.456 184.806 467.658 195.478C487.077 210.072 493.643 224.647 486.941 238.28C483.566 245.144 470.225 258.358 459.853 265.109C445.326 274.565 414.079 288.76 402.448 291.187L399.448 291.813L395.546 280.546C392.18 270.83 383.637 249.782 375.881 232.097L373.608 226.915L377.326 218.782C382.614 207.212 390.293 187.784 394.685 174.859C396.754 168.767 398.78 163.782 399.186 163.781C399.592 163.781 404.317 165.185 409.686 166.903ZM244.702 182.864C233.131 185.592 220.679 195.628 215.159 206.674C197.673 241.666 229.584 281.1 267.413 271.247C289.431 265.512 304.569 242.784 301.026 220.781C298.123 202.76 284.781 187.75 267.598 183.175C261.892 181.656 250.484 181.501 244.702 182.864ZM173.331 292.836C182.443 307.753 183.313 307.052 160.293 303.339C142.024 300.392 134.948 298.869 134.948 297.883C134.948 296.591 142.679 274.347 145.931 266.28C147.705 261.88 149.577 257.193 150.091 255.864C150.939 253.669 151.698 254.682 158.377 266.92C162.421 274.33 169.151 285.992 173.331 292.836ZM363.823 259.03C366.982 266.328 377.948 295.589 377.948 296.719C377.948 297.228 377.16 297.871 376.198 298.147C369.954 299.936 332.021 306.187 331.368 305.534C331.194 305.36 334.999 298.614 339.824 290.544C344.648 282.473 351.262 270.906 354.522 264.838C357.781 258.77 360.696 253.8 361 253.793C361.303 253.786 362.574 256.143 363.823 259.03ZM384.356 319.631C385.646 321.719 389.979 348.781 391.016 361.229C393.286 388.481 388.304 413.884 378.378 425.681C373.675 431.27 368.613 433.219 358.948 433.16C344.39 433.072 326.949 425.987 305.595 411.486C294.595 404.016 274.529 387.368 273.465 384.829C272.804 383.253 272.765 383.308 284.39 369.627C291.428 361.344 311.861 334.545 313.855 330.981C314.355 330.088 318.981 329.142 327.529 328.184C341.298 326.642 374.675 321.276 379.531 319.824C383.438 318.656 383.746 318.644 384.356 319.631ZM146.448 323.188C158.663 325.36 171.505 327.076 191.972 329.274L197.496 329.867L208.637 344.574C214.765 352.662 224.614 364.885 230.524 371.736L241.27 384.193L234.377 390.596C213.896 409.622 186.489 426.025 166.488 431.229C158.203 433.385 145.54 433.232 140.439 430.915C132.635 427.369 126.342 417.5 123.352 404.115C121.175 394.369 120.44 371.11 121.882 357.588C123.039 346.735 127.433 322.423 128.57 320.583C128.87 320.097 129.866 319.924 130.782 320.199C131.698 320.475 138.748 321.82 146.448 323.188ZM285.34 333.03C282.522 337.884 258.623 366.934 256.911 367.587C255.763 368.025 226.948 334.122 226.948 332.333C226.948 332.029 240.25 331.78 256.507 331.78C279.875 331.78 285.914 332.042 285.34 333.03Z" fill="black"/>
</svg>
