<svg width="15" height="15" viewBox="0 0 15 15" fill="none" xmlns="http://www.w3.org/2000/svg">
<g clip-path="url(#clip0_269_3938)">
<path d="M13.8272 4.12732L9.6908 -0.00904368C9.63588 -0.0639004 9.57069 -0.107399 9.49896 -0.137056C9.42722 -0.166713 9.35035 -0.181946 9.27273 -0.181885H2.18182C1.86838 -0.181885 1.56778 -0.057372 1.34615 0.164262C1.12451 0.385896 1 0.686496 1 0.999934V13.9999C1 14.3134 1.12451 14.614 1.34615 14.8356C1.56778 15.0572 1.86838 15.1818 2.18182 15.1818H12.8182C13.1316 15.1818 13.4322 15.0572 13.6539 14.8356C13.8755 14.614 14 14.3134 14 13.9999V4.54539C14.0001 4.46777 13.9848 4.39089 13.9552 4.31916C13.9255 4.24743 13.882 4.18224 13.8272 4.12732ZM9.86364 1.83533L11.9828 3.95448H9.86364V1.83533ZM12.8182 13.9999H2.18182V0.999934H8.68182V4.54539C8.68182 4.70211 8.74407 4.85241 8.85489 4.96322C8.96571 5.07404 9.11601 5.1363 9.27273 5.1363H12.8182V13.9999Z" fill="#EEEAE3"/>
<rect x="11" y="7" width="1" height="7" rx="0.3" transform="rotate(90 11 7)" fill="white"/>
<rect x="11" y="10" width="1" height="7" rx="0.3" transform="rotate(90 11 10)" fill="white"/>
</g>
<defs>
<clipPath id="clip0_269_3938">
<rect width="15" height="15" fill="white"/>
</clipPath>
</defs>
</svg>
