<svg width="15" height="16" viewBox="0 0 15 16" fill="none" xmlns="http://www.w3.org/2000/svg">
<path d="M5.85652 13.0025C2.52744 14.0013 2.52744 11.338 1.1958 11.0051M10.5172 15V12.4233C10.5422 12.1058 10.4993 11.7866 10.3914 11.487C10.2835 11.1874 10.113 10.9142 9.89137 10.6855C11.982 10.4525 14.1792 9.66015 14.1792 6.02478C14.1791 5.09519 13.8215 4.20124 13.1805 3.52797C13.484 2.71468 13.4626 1.81572 13.1206 1.01784C13.1206 1.01784 12.3349 0.784803 10.5172 2.00325C8.99119 1.58966 7.38257 1.58966 5.85652 2.00325C4.03884 0.784803 3.25318 1.01784 3.25318 1.01784C2.9112 1.81572 2.88974 2.71468 3.19325 3.52797C2.54749 4.20624 2.18955 5.10826 2.19453 6.04476C2.19453 9.65349 4.39172 10.4458 6.48239 10.7055C6.26333 10.9318 6.09439 11.2018 5.98656 11.4977C5.87873 11.7937 5.83442 12.1091 5.85652 12.4233V15" stroke="white" stroke-width="1.33163" stroke-linecap="round" stroke-linejoin="round"/>
</svg>
