<svg width="1203" height="85" viewBox="0 0 1203 85" fill="none" xmlns="http://www.w3.org/2000/svg">
<path d="M0.589893 83V3.32712H17.3887V77.9766L9.82655 69.3341H47.0432V83H0.589893ZM64.6894 16.2908L72.2516 8.29654V41.3L68.4705 36.5467H97.855V49.5104H68.4705L72.2516 44.757V78.0306L64.6894 70.0363H103.851V83H55.3988V3.32712H103.851V16.2908H64.6894ZM167.731 16.2908H141.425L148.123 8.29654V83H131.432V8.29654L138.346 16.2908H111.879V3.32712H167.731V16.2908ZM229.426 84.2964C223.664 84.2964 218.587 83.3781 214.193 81.5416C209.836 79.7051 206.415 76.9683 203.93 73.3312C201.482 69.6582 200.257 65.1029 200.257 59.6653C200.257 59.0891 200.257 58.567 200.257 58.0988C200.257 57.5947 200.257 57.0545 200.257 56.4784H217.056C217.056 57.0185 217.056 57.5047 217.056 57.9368C217.056 58.3329 217.056 58.801 217.056 59.3412C217.056 63.0503 218.101 65.8951 220.189 67.8757C222.278 69.8562 225.375 70.8465 229.48 70.8465C233.621 70.8465 236.808 70.1983 239.041 68.902C241.273 67.5696 242.39 65.3909 242.39 62.3661C242.39 60.2415 241.543 58.3689 239.851 56.7485C238.194 55.128 235.926 53.6876 233.045 52.4272C230.2 51.1308 226.941 49.9245 223.268 48.8082C219.271 47.5478 215.562 45.8913 212.141 43.8388C208.72 41.7862 205.965 39.1754 203.876 36.0065C201.824 32.8376 200.798 28.9305 200.798 24.2851C200.798 19.6038 202.04 15.6246 204.525 12.3477C207.009 9.03475 210.394 6.51403 214.68 4.78553C218.965 3.02102 223.808 2.13877 229.21 2.13877C234.863 2.13877 239.851 3.02102 244.172 4.78553C248.529 6.51403 251.932 9.12478 254.381 12.6178C256.866 16.0748 258.108 20.396 258.108 25.5815C258.108 26.1577 258.108 26.6978 258.108 27.202C258.108 27.6701 258.108 28.2103 258.108 28.8224H241.363C241.363 28.4263 241.363 28.0122 241.363 27.5801C241.363 27.148 241.363 26.7338 241.363 26.3377C241.363 22.8447 240.391 20.1619 238.446 18.2894C236.538 16.4169 233.531 15.4806 229.426 15.4806C225.465 15.4806 222.386 16.2008 220.189 17.6412C218.029 19.0816 216.948 21.2963 216.948 24.2851C216.948 26.4458 217.722 28.2823 219.271 29.7947C220.855 31.3072 223.016 32.6575 225.753 33.8459C228.49 35.0342 231.604 36.2226 235.097 37.4109C239.851 39.0674 243.992 40.9039 247.521 42.9205C251.086 44.9011 253.841 47.4038 255.785 50.4286C257.73 53.4175 258.702 57.2346 258.702 61.8799C258.702 66.6333 257.478 70.6845 255.029 74.0334C252.58 77.3824 249.141 79.9391 244.712 81.7036C240.319 83.4321 235.223 84.2964 229.426 84.2964ZM323.904 3.32712C329.486 3.32712 334.059 4.10134 337.624 5.64978C341.225 7.19823 343.89 9.43087 345.618 12.3477C347.347 15.2285 348.211 18.6315 348.211 22.5566C348.211 26.4818 347.437 29.8307 345.888 32.6035C344.34 35.3403 342.377 37.4649 340.001 38.9774C337.624 40.4538 335.211 41.282 332.763 41.4621C335.319 41.5341 337.948 42.2003 340.649 43.4606C343.35 44.685 345.618 46.6836 347.455 49.4564C349.291 52.1932 350.21 55.8482 350.21 60.4215C350.21 64.7428 349.327 68.6139 347.563 72.0349C345.834 75.4198 343.043 78.1026 339.19 80.0832C335.337 82.0277 330.188 83 323.742 83H292.413V3.32712H323.904ZM308.456 40.2197L302.892 35.5204H318.772C323.022 35.5204 326.209 34.6201 328.333 32.8196C330.458 30.9831 331.52 28.5163 331.52 25.4195C331.52 23.3309 331.07 21.6204 330.17 20.288C329.27 18.9196 327.937 17.9113 326.173 17.2631C324.408 16.6149 322.229 16.2908 319.637 16.2908H300.893L308.456 8.29654V40.2197ZM320.501 69.9823C324.606 69.9823 327.721 69.046 329.846 67.1735C332.006 65.2649 333.087 62.6902 333.087 59.4492C333.087 57.6127 332.763 56.0102 332.114 54.6419C331.502 53.2735 330.62 52.1391 329.468 51.2389C328.315 50.3026 326.911 49.6004 325.254 49.1323C323.634 48.6281 321.833 48.3761 319.853 48.3761H302.892L308.456 43.7307V77.9766L300.893 69.9823H320.501ZM419.201 54.2097C419.201 64.2926 416.536 71.8368 411.207 76.8422C405.877 81.8117 398.585 84.2964 389.33 84.2964C380.04 84.2964 372.729 81.8117 367.4 76.8422C362.106 71.8368 359.46 64.2926 359.46 54.2097C359.46 52.8413 359.46 51.3829 359.46 49.8345C359.46 48.286 359.46 46.6656 359.46 44.9731V3.32712H376.259V47.3498C376.259 48.7182 376.259 49.9965 376.259 51.1849C376.259 52.3732 376.259 53.4715 376.259 54.4798C376.259 60.0974 377.285 64.2386 379.337 66.9034C381.39 69.5321 384.721 70.8465 389.33 70.8465C393.904 70.8465 397.235 69.5321 399.323 66.9034C401.412 64.2386 402.456 60.0974 402.456 54.4798V3.32712H419.201V54.2097ZM430.304 83V3.32712H446.833V83H430.304ZM457.895 83V3.32712H474.693V77.9766L467.131 69.3341H504.348V83H457.895ZM512.703 83V3.32712H538.469C543.798 3.32712 548.642 4.29939 552.999 6.24395C557.392 8.1525 561.155 10.8713 564.288 14.4003C567.457 17.8933 569.888 22.0705 571.58 26.9319C573.273 31.7933 574.119 37.1588 574.119 43.0285C574.119 48.8982 573.273 54.2818 571.58 59.1792C569.888 64.0766 567.457 68.3078 564.288 71.8728C561.155 75.4018 557.392 78.1386 552.999 80.0832C548.642 82.0277 543.798 83 538.469 83H512.703ZM529.556 78.0306L521.994 70.0363H536.308C540.197 70.0363 543.708 68.956 546.841 66.7953C550.01 64.5987 552.513 61.4838 554.349 57.4507C556.186 53.3815 557.104 48.5741 557.104 43.0285C557.104 37.4469 556.186 32.6755 554.349 28.7144C552.513 24.7173 550.01 21.6564 546.841 19.5318C543.708 17.3711 540.197 16.2908 536.308 16.2908H521.994L529.556 8.29654V78.0306ZM660.749 16.2908H634.443L641.141 8.29654V83H624.45V8.29654L631.364 16.2908H604.897V3.32712H660.749V16.2908ZM731.238 3.32712V83H714.439V44.757L722.001 49.8345H678.032L685.594 44.9731V83H668.796V3.32712H685.594V41.8402L678.032 36.8167H722.001L714.439 41.8402V3.32712H731.238ZM751.568 16.2908L759.131 8.29654V41.3L755.35 36.5467H784.734V49.5104H755.35L759.131 44.757V78.0306L751.568 70.0363H790.73V83H742.278V3.32712H790.73V16.2908H751.568ZM835.758 16.2908L843.321 8.29654V41.8402L838.135 37.627H870.706V50.5907H838.135L843.321 46.0534V83H826.576V3.32712H875.514V16.2908H835.758ZM944.713 54.2097C944.713 64.2926 942.048 71.8368 936.718 76.8422C931.389 81.8117 924.097 84.2964 914.842 84.2964C905.551 84.2964 898.241 81.8117 892.912 76.8422C887.618 71.8368 884.972 64.2926 884.972 54.2097C884.972 52.8413 884.972 51.3829 884.972 49.8345C884.972 48.286 884.972 46.6656 884.972 44.9731V3.32712H901.77V47.3498C901.77 48.7182 901.77 49.9965 901.77 51.1849C901.77 52.3732 901.77 53.4715 901.77 54.4798C901.77 60.0974 902.797 64.2386 904.849 66.9034C906.902 69.5321 910.233 70.8465 914.842 70.8465C919.415 70.8465 922.746 69.5321 924.835 66.9034C926.924 64.2386 927.968 60.0974 927.968 54.4798V3.32712H944.713V54.2097ZM1008.7 16.2908H982.392L989.09 8.29654V83H972.399V8.29654L979.313 16.2908H952.845V3.32712H1008.7V16.2908ZM1076.49 54.2097C1076.49 64.2926 1073.82 71.8368 1068.49 76.8422C1063.16 81.8117 1055.87 84.2964 1046.61 84.2964C1037.32 84.2964 1030.01 81.8117 1024.68 76.8422C1019.39 71.8368 1016.74 64.2926 1016.74 54.2097C1016.74 52.8413 1016.74 51.3829 1016.74 49.8345C1016.74 48.286 1016.74 46.6656 1016.74 44.9731V3.32712H1033.54V47.3498C1033.54 48.7182 1033.54 49.9965 1033.54 51.1849C1033.54 52.3732 1033.54 53.4715 1033.54 54.4798C1033.54 60.0974 1034.57 64.2386 1036.62 66.9034C1038.67 69.5321 1042.01 70.8465 1046.61 70.8465C1051.19 70.8465 1054.52 69.5321 1056.61 66.9034C1058.7 64.2386 1059.74 60.0974 1059.74 54.4798V3.32712H1076.49V54.2097ZM1087.59 83V3.32712H1119.89C1128.24 3.32712 1134.47 5.23566 1138.58 9.05276C1142.72 12.8338 1144.79 18.2894 1144.79 25.4195C1144.79 29.5246 1144 33.0356 1142.41 35.9525C1140.87 38.8333 1138.94 41.066 1136.63 42.6504C1134.37 44.2349 1132.17 45.1171 1130.04 45.2972C1132.24 45.4412 1134.31 45.9994 1136.26 46.9716C1138.24 47.9079 1139.86 49.4023 1141.12 51.4549C1142.38 53.5075 1143.01 56.2623 1143.01 59.7193C1143.01 62.276 1143.01 64.7968 1143.01 67.2815C1143.01 69.7662 1143.01 72.3049 1143.01 74.8977C1143.01 76.6622 1143.13 78.3007 1143.39 79.8131C1143.67 81.2895 1144.09 82.3518 1144.63 83H1127.83C1127.36 82.2798 1126.98 81.1995 1126.7 79.7591C1126.41 78.2826 1126.26 76.6622 1126.26 74.8977C1126.26 72.593 1126.26 70.3964 1126.26 68.3078C1126.26 66.1832 1126.26 63.9685 1126.26 61.6639C1126.26 58.531 1125.45 56.1183 1123.83 54.4258C1122.21 52.6973 1119.62 51.833 1116.05 51.833H1099.53L1104.01 46.4855V83H1087.59ZM1104.01 44.9731L1099.53 38.8693H1116.27C1118.43 38.8693 1120.36 38.3832 1122.05 37.4109C1123.74 36.4386 1125.08 35.0522 1126.05 33.2517C1127.06 31.4512 1127.56 29.3446 1127.56 26.9319C1127.56 23.5469 1126.53 20.9182 1124.48 19.0456C1122.46 17.1731 1119.62 16.2368 1115.95 16.2368H1099.15L1104.01 10.7813V44.9731ZM1163.61 16.2908L1171.17 8.29654V41.3L1167.39 36.5467H1196.78V49.5104H1167.39L1171.17 44.757V78.0306L1163.61 70.0363H1202.77V83H1154.32V3.32712H1202.77V16.2908H1163.61Z" fill="white"/>
<path d="M181.557 18.2354C179 18.2354 176.912 17.4972 175.291 16.0208C173.707 14.5083 172.915 12.4377 172.915 9.80898C172.915 7.18022 173.797 5.0196 175.561 3.32712C177.326 1.63463 179.811 0.788383 183.015 0.788383C186.292 0.788383 188.795 1.86869 190.524 4.02932C192.288 6.18994 193.17 8.98074 193.17 12.4017C193.17 15.6427 192.36 18.5055 190.74 20.9902C189.155 23.4389 187.157 25.5095 184.744 27.202C182.331 28.8945 179.937 30.2448 177.56 31.2531L175.615 27.202C177.2 26.5538 178.784 25.6895 180.369 24.6092C181.953 23.4929 183.286 22.2505 184.366 20.8822C185.446 19.5138 186.004 18.1634 186.04 16.831C185.896 17.011 185.428 17.2991 184.636 17.6952C183.844 18.0553 182.817 18.2354 181.557 18.2354Z" fill="#3866FB"/>
</svg>
