<svg width="24" height="20" viewBox="0 0 24 20" fill="none" xmlns="http://www.w3.org/2000/svg">
<path d="M-0.000183105 9.99989C-0.000183105 9.73469 0.105165 9.48035 0.29269 9.29283C0.480215 9.1053 0.734552 8.99996 0.999752 8.99996L20.5847 8.99996L13.2914 1.70794C13.1985 1.61503 13.1248 1.50474 13.0746 1.38335C13.0243 1.26197 12.9984 1.13187 12.9984 1.00048C12.9984 0.869095 13.0243 0.738997 13.0746 0.617611C13.1248 0.496225 13.1985 0.385933 13.2914 0.293028C13.3843 0.200125 13.4946 0.126431 13.616 0.0761509C13.7374 0.0258713 13.8675 -9.53674e-06 13.9989 -9.53674e-06C14.1303 -9.53674e-06 14.2604 0.0258713 14.3818 0.0761509C14.5032 0.126431 14.6134 0.200125 14.7063 0.293028L23.7058 9.29244C23.7987 9.3853 23.8725 9.49558 23.9228 9.61697C23.9731 9.73836 23.999 9.86848 23.999 9.99989C23.999 10.1313 23.9731 10.2614 23.9228 10.3828C23.8725 10.5042 23.7987 10.6145 23.7058 10.7073L14.7063 19.7067C14.5187 19.8944 14.2642 19.9998 13.9989 19.9998C13.7335 19.9998 13.4791 19.8944 13.2914 19.7067C13.1038 19.5191 12.9984 19.2646 12.9984 18.9993C12.9984 18.7339 13.1038 18.4795 13.2914 18.2918L20.5847 10.9998L0.999752 10.9998C0.734552 10.9998 0.480215 10.8945 0.29269 10.7069C0.105165 10.5194 -0.000183105 10.2651 -0.000183105 9.99989Z" fill="black"/>
</svg>
