<svg width="16" height="16" viewBox="0 0 16 16" fill="none" xmlns="http://www.w3.org/2000/svg">
<rect x="1" y="1" width="14" height="14" rx="2.17476" stroke="white" stroke-width="0.988349"/>
<path d="M4.18656 11.9514V6.49818H5.69898V11.9514H4.18656ZM4.94632 5.79523C4.72146 5.79523 4.52857 5.72067 4.36762 5.57156C4.20904 5.42008 4.12975 5.23902 4.12975 5.02837C4.12975 4.82008 4.20904 4.64139 4.36762 4.49228C4.52857 4.3408 4.72146 4.26506 4.94632 4.26506C5.17117 4.26506 5.36288 4.3408 5.52146 4.49228C5.68241 4.64139 5.76288 4.82008 5.76288 5.02837C5.76288 5.23902 5.68241 5.42008 5.52146 5.57156C5.36288 5.72067 5.17117 5.79523 4.94632 5.79523ZM8.32295 8.79877V11.9514H6.81053V6.49818H8.25195V7.46031H8.31585C8.43656 7.14315 8.63893 6.89226 8.92295 6.70765C9.20697 6.52067 9.55135 6.42718 9.95608 6.42718C10.3348 6.42718 10.665 6.51002 10.9466 6.6757C11.2283 6.84138 11.4472 7.07806 11.6034 7.38575C11.7596 7.69108 11.8377 8.05557 11.8377 8.47924V11.9514H10.3253V8.74906C10.3277 8.41534 10.2425 8.15498 10.0697 7.968C9.89691 7.77865 9.65904 7.68398 9.35608 7.68398C9.15254 7.68398 8.97265 7.72776 8.81644 7.81534C8.6626 7.90291 8.54189 8.03072 8.45431 8.19877C8.36911 8.36445 8.32532 8.56445 8.32295 8.79877Z" fill="white"/>
</svg>
