<svg width="180" height="29" viewBox="0 0 180 29" fill="none" xmlns="http://www.w3.org/2000/svg">
<path d="M1.72159 23V5.54545H8.26705C9.60795 5.54545 10.733 5.79545 11.642 6.29545C12.5568 6.79545 13.2472 7.48295 13.7131 8.35795C14.1847 9.22727 14.4205 10.2159 14.4205 11.3239C14.4205 12.4432 14.1847 13.4375 13.7131 14.3068C13.2415 15.1761 12.5455 15.8608 11.625 16.3608C10.7045 16.8551 9.57102 17.1023 8.22443 17.1023H3.88636V14.5028H7.7983C8.58239 14.5028 9.22443 14.3665 9.72443 14.0938C10.2244 13.821 10.5938 13.446 10.8324 12.9688C11.0767 12.4915 11.1989 11.9432 11.1989 11.3239C11.1989 10.7045 11.0767 10.1591 10.8324 9.6875C10.5938 9.21591 10.2216 8.84943 9.71591 8.58807C9.21591 8.32102 8.57102 8.1875 7.78125 8.1875H4.88352V23H1.72159ZM20.5632 23.2642C19.7337 23.2642 18.9865 23.1165 18.3217 22.821C17.6626 22.5199 17.1399 22.0767 16.7536 21.4915C16.3729 20.9062 16.1825 20.1847 16.1825 19.3267C16.1825 18.5881 16.3189 17.9773 16.5916 17.4943C16.8643 17.0114 17.2365 16.625 17.7081 16.3352C18.1797 16.0455 18.7109 15.8267 19.3018 15.679C19.8984 15.5256 20.5149 15.4148 21.1513 15.3466C21.9183 15.267 22.5405 15.196 23.0178 15.1335C23.495 15.0653 23.8416 14.9631 24.0575 14.8267C24.2791 14.6847 24.3899 14.4659 24.3899 14.1705V14.1193C24.3899 13.4773 24.1996 12.9801 23.8189 12.6278C23.4382 12.2756 22.8899 12.0994 22.174 12.0994C21.4183 12.0994 20.8189 12.2642 20.3757 12.5938C19.9382 12.9233 19.6428 13.3125 19.4893 13.7614L16.6087 13.3523C16.8359 12.5568 17.2109 11.892 17.7337 11.358C18.2564 10.8182 18.8956 10.4148 19.6513 10.1477C20.407 9.875 21.2422 9.73864 22.157 9.73864C22.7876 9.73864 23.4155 9.8125 24.0405 9.96023C24.6655 10.108 25.2365 10.3523 25.7536 10.6932C26.2706 11.0284 26.6854 11.4858 26.9979 12.0653C27.3161 12.6449 27.4751 13.3693 27.4751 14.2386V23H24.5092V21.2017H24.407C24.2195 21.5653 23.9553 21.9062 23.6143 22.2244C23.2791 22.5369 22.8558 22.7898 22.3445 22.983C21.8388 23.1705 21.245 23.2642 20.5632 23.2642ZM21.3643 20.9972C21.9837 20.9972 22.5206 20.875 22.9751 20.6307C23.4297 20.3807 23.7791 20.0511 24.0234 19.642C24.2734 19.233 24.3984 18.7869 24.3984 18.304V16.7614C24.3018 16.8409 24.1371 16.9148 23.9041 16.983C23.6768 17.0511 23.4212 17.1108 23.1371 17.1619C22.853 17.2131 22.5717 17.2585 22.2933 17.2983C22.0149 17.3381 21.7734 17.3722 21.5689 17.4006C21.1087 17.4631 20.6967 17.5653 20.3331 17.7074C19.9695 17.8494 19.6825 18.0483 19.4723 18.304C19.2621 18.554 19.157 18.8778 19.157 19.2756C19.157 19.8438 19.3643 20.2727 19.7791 20.5625C20.1939 20.8523 20.7223 20.9972 21.3643 20.9972ZM30.7138 23V5.54545H33.799V12.0739H33.9268C34.0859 11.7557 34.3104 11.4176 34.6001 11.0597C34.8899 10.696 35.282 10.3864 35.7763 10.1307C36.2706 9.86932 36.9013 9.73864 37.6683 9.73864C38.6797 9.73864 39.5916 9.99716 40.4041 10.5142C41.2223 11.0256 41.87 11.7841 42.3473 12.7898C42.8303 13.7898 43.0717 15.017 43.0717 16.4716C43.0717 17.9091 42.8359 19.1307 42.3643 20.1364C41.8928 21.142 41.2507 21.9091 40.4382 22.4375C39.6257 22.9659 38.7053 23.2301 37.6768 23.2301C36.9268 23.2301 36.3047 23.1051 35.8104 22.8551C35.3161 22.6051 34.9183 22.304 34.6172 21.9517C34.3217 21.5937 34.0916 21.2557 33.9268 20.9375H33.7479V23H30.7138ZM33.7393 16.4545C33.7393 17.3011 33.8587 18.0426 34.0973 18.679C34.3416 19.3153 34.6911 19.8125 35.1456 20.1705C35.6058 20.5227 36.1626 20.6989 36.8161 20.6989C37.4979 20.6989 38.0689 20.517 38.5291 20.1534C38.9893 19.7841 39.3359 19.2812 39.5689 18.6449C39.8075 18.0028 39.9268 17.2727 39.9268 16.4545C39.9268 15.642 39.8104 14.9205 39.5774 14.2898C39.3445 13.6591 38.9979 13.1648 38.5376 12.8068C38.0774 12.4489 37.5036 12.2699 36.8161 12.2699C36.157 12.2699 35.5973 12.4432 35.1371 12.7898C34.6768 13.1364 34.3274 13.6222 34.0888 14.2472C33.8558 14.8722 33.7393 15.608 33.7393 16.4545ZM48.7798 5.54545V23H45.6946V5.54545H48.7798ZM57.6626 23.2557C56.3842 23.2557 55.2763 22.9744 54.3388 22.4119C53.4013 21.8494 52.674 21.0625 52.157 20.0511C51.6456 19.0398 51.3899 17.858 51.3899 16.5057C51.3899 15.1534 51.6456 13.9687 52.157 12.9517C52.674 11.9347 53.4013 11.1449 54.3388 10.5824C55.2763 10.0199 56.3842 9.73864 57.6626 9.73864C58.9411 9.73864 60.049 10.0199 60.9865 10.5824C61.924 11.1449 62.6484 11.9347 63.1598 12.9517C63.6768 13.9687 63.9354 15.1534 63.9354 16.5057C63.9354 17.858 63.6768 19.0398 63.1598 20.0511C62.6484 21.0625 61.924 21.8494 60.9865 22.4119C60.049 22.9744 58.9411 23.2557 57.6626 23.2557ZM57.6797 20.7841C58.3729 20.7841 58.9524 20.5937 59.4183 20.2131C59.8842 19.8267 60.2308 19.3097 60.4581 18.6619C60.6911 18.0142 60.8075 17.2926 60.8075 16.4972C60.8075 15.696 60.6911 14.9716 60.4581 14.3239C60.2308 13.6705 59.8842 13.1506 59.4183 12.7642C58.9524 12.3778 58.3729 12.1847 57.6797 12.1847C56.9695 12.1847 56.3786 12.3778 55.907 12.7642C55.4411 13.1506 55.0916 13.6705 54.8587 14.3239C54.6314 14.9716 54.5178 15.696 54.5178 16.4972C54.5178 17.2926 54.6314 18.0142 54.8587 18.6619C55.0916 19.3097 55.4411 19.8267 55.907 20.2131C56.3786 20.5937 56.9695 20.7841 57.6797 20.7841ZM72.6435 23V5.54545H75.8054V12.9347H83.8935V5.54545H87.0639V23H83.8935V15.5852H75.8054V23H72.6435ZM96.1619 23.2557C94.8494 23.2557 93.7159 22.983 92.7614 22.4375C91.8125 21.8864 91.0824 21.108 90.571 20.1023C90.0597 19.0909 89.804 17.9006 89.804 16.5312C89.804 15.1847 90.0597 14.0028 90.571 12.9858C91.0881 11.9631 91.8097 11.1676 92.7358 10.5994C93.6619 10.0256 94.75 9.73864 96 9.73864C96.8068 9.73864 97.5682 9.86932 98.2841 10.1307C99.0057 10.3864 99.642 10.7841 100.193 11.3239C100.75 11.8636 101.188 12.5511 101.506 13.3864C101.824 14.2159 101.983 15.2045 101.983 16.3523V17.2983H91.2528V15.2188H99.0256C99.0199 14.6278 98.892 14.1023 98.642 13.642C98.392 13.1761 98.0426 12.8097 97.5938 12.5426C97.1506 12.2756 96.6335 12.142 96.0426 12.142C95.4119 12.142 94.858 12.2955 94.3807 12.6023C93.9034 12.9034 93.5313 13.3011 93.2642 13.7955C93.0028 14.2841 92.8693 14.821 92.8636 15.4062V17.2216C92.8636 17.983 93.0028 18.6364 93.2812 19.1818C93.5597 19.7216 93.9489 20.1364 94.4489 20.4261C94.9489 20.7102 95.5341 20.8523 96.2045 20.8523C96.6534 20.8523 97.0597 20.7898 97.4233 20.6648C97.7869 20.5341 98.1023 20.3438 98.3693 20.0938C98.6364 19.8438 98.8381 19.5341 98.9744 19.1648L101.855 19.4886C101.673 20.25 101.327 20.9148 100.815 21.483C100.31 22.0455 99.6619 22.483 98.8722 22.7955C98.0824 23.1023 97.179 23.2557 96.1619 23.2557ZM107.678 15.3295V23H104.593V9.90909H107.542V12.1335H107.695C107.996 11.4006 108.477 10.8182 109.136 10.3864C109.8 9.95455 110.621 9.73864 111.599 9.73864C112.502 9.73864 113.289 9.93182 113.96 10.3182C114.636 10.7045 115.158 11.2642 115.528 11.9972C115.903 12.7301 116.087 13.6193 116.082 14.6648V23H112.996V15.142C112.996 14.267 112.769 13.5824 112.315 13.0881C111.866 12.5937 111.244 12.3466 110.448 12.3466C109.908 12.3466 109.428 12.4659 109.008 12.7045C108.593 12.9375 108.266 13.2756 108.028 13.7188C107.795 14.1619 107.678 14.6989 107.678 15.3295ZM119.218 23V9.90909H122.21V12.0909H122.346C122.585 11.3352 122.994 10.7528 123.573 10.3438C124.158 9.92898 124.826 9.72159 125.576 9.72159C125.746 9.72159 125.937 9.73011 126.147 9.74716C126.363 9.75852 126.542 9.77841 126.684 9.80682V12.6449C126.553 12.5994 126.346 12.5597 126.062 12.5256C125.783 12.4858 125.513 12.4659 125.252 12.4659C124.69 12.4659 124.184 12.5881 123.735 12.8324C123.292 13.071 122.942 13.4034 122.687 13.8295C122.431 14.2557 122.303 14.7472 122.303 15.304V23H119.218ZM128.734 23V9.90909H131.819V23H128.734ZM130.285 8.05114C129.796 8.05114 129.376 7.8892 129.023 7.56534C128.671 7.23579 128.495 6.84091 128.495 6.38068C128.495 5.91477 128.671 5.51989 129.023 5.19602C129.376 4.86648 129.796 4.7017 130.285 4.7017C130.779 4.7017 131.2 4.86648 131.546 5.19602C131.898 5.51989 132.075 5.91477 132.075 6.38068C132.075 6.84091 131.898 7.23579 131.546 7.56534C131.2 7.8892 130.779 8.05114 130.285 8.05114ZM143.727 27.9091V20.9375H143.599C143.44 21.2557 143.21 21.5937 142.909 21.9517C142.608 22.304 142.21 22.6051 141.716 22.8551C141.222 23.1051 140.599 23.2301 139.849 23.2301C138.821 23.2301 137.901 22.9659 137.088 22.4375C136.276 21.9091 135.634 21.142 135.162 20.1364C134.69 19.1307 134.455 17.9091 134.455 16.4716C134.455 15.017 134.693 13.7898 135.17 12.7898C135.653 11.7841 136.304 11.0256 137.122 10.5142C137.94 9.99716 138.852 9.73864 139.858 9.73864C140.625 9.73864 141.256 9.86932 141.75 10.1307C142.244 10.3864 142.636 10.696 142.926 11.0597C143.216 11.4176 143.44 11.7557 143.599 12.0739H143.787V9.90909H146.821V27.9091H143.727ZM140.71 20.6989C141.364 20.6989 141.92 20.5227 142.381 20.1705C142.841 19.8125 143.19 19.3153 143.429 18.679C143.668 18.0426 143.787 17.3011 143.787 16.4545C143.787 15.608 143.668 14.8722 143.429 14.2472C143.196 13.6222 142.849 13.1364 142.389 12.7898C141.935 12.4432 141.375 12.2699 140.71 12.2699C140.023 12.2699 139.449 12.4489 138.989 12.8068C138.528 13.1648 138.182 13.6591 137.949 14.2898C137.716 14.9205 137.599 15.642 137.599 16.4545C137.599 17.2727 137.716 18.0028 137.949 18.6449C138.188 19.2812 138.537 19.7841 138.997 20.1534C139.463 20.517 140.034 20.6989 140.71 20.6989ZM158.335 17.4943V9.90909H161.42V23H158.429V20.6733H158.293C157.997 21.4062 157.511 22.0057 156.835 22.4716C156.165 22.9375 155.338 23.1705 154.355 23.1705C153.497 23.1705 152.739 22.9801 152.08 22.5994C151.426 22.2131 150.915 21.6534 150.545 20.9205C150.176 20.1818 149.991 19.2898 149.991 18.2443V9.90909H153.077V17.767C153.077 18.5966 153.304 19.2557 153.759 19.7443C154.213 20.233 154.81 20.4773 155.548 20.4773C156.003 20.4773 156.443 20.3665 156.869 20.1449C157.295 19.9233 157.645 19.5938 157.918 19.1562C158.196 18.7131 158.335 18.1591 158.335 17.4943ZM170.388 23.2557C169.076 23.2557 167.942 22.983 166.988 22.4375C166.039 21.8864 165.309 21.108 164.798 20.1023C164.286 19.0909 164.031 17.9006 164.031 16.5312C164.031 15.1847 164.286 14.0028 164.798 12.9858C165.315 11.9631 166.036 11.1676 166.962 10.5994C167.888 10.0256 168.977 9.73864 170.227 9.73864C171.033 9.73864 171.795 9.86932 172.511 10.1307C173.232 10.3864 173.869 10.7841 174.42 11.3239C174.977 11.8636 175.414 12.5511 175.732 13.3864C176.05 14.2159 176.21 15.2045 176.21 16.3523V17.2983H165.479V15.2188H173.252C173.246 14.6278 173.119 14.1023 172.869 13.642C172.619 13.1761 172.269 12.8097 171.82 12.5426C171.377 12.2756 170.86 12.142 170.269 12.142C169.638 12.142 169.085 12.2955 168.607 12.6023C168.13 12.9034 167.758 13.3011 167.491 13.7955C167.229 14.2841 167.096 14.821 167.09 15.4062V17.2216C167.09 17.983 167.229 18.6364 167.508 19.1818C167.786 19.7216 168.175 20.1364 168.675 20.4261C169.175 20.7102 169.761 20.8523 170.431 20.8523C170.88 20.8523 171.286 20.7898 171.65 20.6648C172.013 20.5341 172.329 20.3438 172.596 20.0938C172.863 19.8438 173.065 19.5341 173.201 19.1648L176.082 19.4886C175.9 20.25 175.553 20.9148 175.042 21.483C174.536 22.0455 173.888 22.483 173.099 22.7955C172.309 23.1023 171.406 23.2557 170.388 23.2557Z" fill="white"/>
</svg>
